<svg width="24" height="24" viewBox="0 0 24 24" fill="none" xmlns="http://www.w3.org/2000/svg">
<path d="M20.5022 5.7006C19.0052 5.55184 17.5082 5.44026 16.0019 5.35658V5.34728L15.7974 4.13854C15.6579 3.28312 15.4533 2 13.2776 2H10.8415C8.67511 2 8.47055 3.22734 8.32178 4.12924L8.12652 5.31939C7.26181 5.37517 6.39709 5.43096 5.53238 5.51464L3.63559 5.7006C3.24507 5.7378 2.96613 6.08182 3.00332 6.46304C3.04052 6.84426 3.37524 7.1232 3.76576 7.08601L5.66255 6.90005C10.5347 6.41655 15.444 6.60251 20.372 7.0953H20.4464C20.7997 7.0953 21.1065 6.82566 21.1437 6.46304C21.1577 6.2773 21.0984 6.09347 20.9785 5.95095C20.8585 5.80843 20.6876 5.71856 20.5022 5.7006ZM18.7913 8.40632C18.5682 8.17387 18.2613 8.0437 17.9452 8.0437H6.19254C5.87641 8.0437 5.56027 8.17387 5.34642 8.40632C5.13257 8.63877 5.01169 8.9549 5.03029 9.28033L5.60676 18.8201C5.70904 20.2334 5.83921 22 9.08422 22H15.0535C18.2985 22 18.4287 20.2427 18.531 18.8201L19.1075 9.28963C19.1261 8.95491 19.0052 8.63877 18.7913 8.40632ZM13.6123 17.3417H10.5161C10.1349 17.3417 9.81876 17.0256 9.81876 16.6444C9.81876 16.2631 10.1349 15.947 10.5161 15.947H13.6123C13.9936 15.947 14.3097 16.2631 14.3097 16.6444C14.3097 17.0256 13.9936 17.3417 13.6123 17.3417ZM14.3934 13.6225H9.74437C9.36316 13.6225 9.04702 13.3064 9.04702 12.9252C9.04702 12.5439 9.36316 12.2278 9.74437 12.2278H14.3934C14.7746 12.2278 15.0907 12.5439 15.0907 12.9252C15.0907 13.3064 14.7746 13.6225 14.3934 13.6225Z" fill="#E05151"/>
</svg>
